<?xml version="1.0" encoding="UTF-8" standalone="no"?>
<svg
   xmlns:dc="http://purl.org/dc/elements/1.1/"
   xmlns:cc="http://creativecommons.org/ns#"
   xmlns:rdf="http://www.w3.org/1999/02/22-rdf-syntax-ns#"
   xmlns:svg="http://www.w3.org/2000/svg"
   xmlns="http://www.w3.org/2000/svg"
   xmlns:xlink="http://www.w3.org/1999/xlink"
   xmlns:sodipodi="http://sodipodi.sourceforge.net/DTD/sodipodi-0.dtd"
   xmlns:inkscape="http://www.inkscape.org/namespaces/inkscape"
   enable-background="new 0 0 489.597 524.424"
   height="524.424"
   id="レイヤー_1"
   overflow="visible"
   version="1.1"
   viewBox="0 0 489.597 524.424"
   width="489.597"
   xml:space="preserve"
   sodipodi:docname="package.svg"
   inkscape:version="0.92.1 r15371"><metadata
     id="metadata3753"><rdf:RDF><cc:Work
         rdf:about=""><dc:format>image/svg+xml</dc:format><dc:type
           rdf:resource="http://purl.org/dc/dcmitype/StillImage" /></cc:Work></rdf:RDF></metadata><defs
     id="defs3751" /><sodipodi:namedview
     pagecolor="#ffffff"
     bordercolor="#666666"
     borderopacity="1"
     objecttolerance="10"
     gridtolerance="10"
     guidetolerance="10"
     inkscape:pageopacity="0"
     inkscape:pageshadow="2"
     inkscape:window-width="885"
     inkscape:window-height="631"
     id="namedview3749"
     showgrid="false"
     inkscape:zoom="0.63498237"
     inkscape:cx="244.79849"
     inkscape:cy="258.12608"
     inkscape:window-x="349"
     inkscape:window-y="68"
     inkscape:window-maximized="0"
     inkscape:current-layer="レイヤー_1" /><g
     id="プレゼント"><g
       id="g3709"><g
         id="g3693"><g
           id="g3681" /><g
           id="g3691"><defs
             id="defs3684"><path
               d="M133.68,199.796h176.599c29.889,0,54.119,22.672,54.119,50.64v165.25       c0,27.968-24.23,50.641-54.119,50.641H133.68c-29.889,0-54.119-22.673-54.119-50.641v-165.25       C79.561,222.468,103.791,199.796,133.68,199.796z"
               id="XMLID_431_" /></defs><clipPath
             id="XMLID_471_"><use
               xlink:href="#XMLID_431_"
               id="use3686" /></clipPath></g></g><polygon
         fill="#A8A8A8"
         points="246.982,178.473 353.027,281.159     311.402,274.077 310.783,313.66 224.828,194.761   "
         stroke="#A8A8A8"
         stroke-linejoin="round"
         stroke-width="15"
         id="polygon3695" /><polyline
         fill="#A8A8A8"
         points="130.352,272.376 130.971,311.959     216.926,193.06 194.772,176.772   "
         stroke="#A8A8A8"
         stroke-linejoin="round"
         stroke-width="15"
         id="polyline3697" /><g
         id="g3707"><path
           d="M220.793,174.316     c7.008-18.506,24.641-46.265,42.048-57.695c17.408-11.431,34.59-6.531,46.797,0.545c12.207,7.075,19.441,16.329,22.381,26.397     c2.939,10.07,1.582,20.956-4.295,29.12c-5.879,8.165-16.277,13.608-31.876,17.962c-15.599,4.355-36.397,7.621-49.735,10.886     c-13.339,3.267-19.216,6.532-23.964,3.538C217.402,202.076,213.785,192.823,220.793,174.316z"
           fill="#A8A8A8"
           stroke="#A8A8A8"
           stroke-linejoin="round"
           stroke-width="18"
           id="path3699" /><path
           d="M226.495,204.295     c5.95-9.379,11.901-18.758,21.512-28.136c9.613-9.38,22.887-18.759,34.787-23.447c11.9-4.69,22.428-4.69,29.752-4.69     s11.443,0,13.504,3.518c2.059,3.517,2.059,10.551,2.059,17.586"
           fill="#A8A8A8"
           stroke="#A8A8A8"
           stroke-linejoin="round"
           stroke-width="18"
           id="path3701" /><rect
           fill="#A8A8A8"
           height="40.822"
           stroke="#A8A8A8"
           stroke-linejoin="round"
           stroke-width="12"
           width="16.277"
           x="212.88"
           y="168.873"
           id="rect3705" /></g></g><g
       id="g3727"><g
         id="g3712"><path
           d="M158.139,159.563h192.413c32.566,0,58.965,24.703,58.965,55.176v180.049     c0,30.473-26.398,55.176-58.965,55.176H158.139c-32.566,0-58.966-24.703-58.966-55.176V214.739     C99.173,184.266,125.573,159.563,158.139,159.563z"
           fill="#FFFFFF"
           id="XMLID_474_" /></g><g
         id="g3722"><defs
           id="defs3715"><path
             d="M158.139,159.563h192.413c32.566,0,58.965,24.703,58.965,55.176v180.049      c0,30.473-26.398,55.176-58.965,55.176H158.139c-32.566,0-58.966-24.703-58.966-55.176V214.739      C99.173,184.266,125.573,159.563,158.139,159.563z"
             id="XMLID_433_" /></defs><clipPath
           id="XMLID_473_"><use
             xlink:href="#XMLID_433_"
             id="use3717" /></clipPath><rect
           clip-path="url(#XMLID_473_)"
           fill="#A8A8A8"
           height="383.177"
           stroke="#000000"
           stroke-linejoin="round"
           stroke-width="14"
           width="33.321"
           x="235.787"
           y="117.093"
           id="rect3720"
           style="fill:#ff9955" /></g><g
         id="g3725"><path
           d="M158.139,159.563h192.413     c32.566,0,58.965,24.703,58.965,55.176v180.049c0,30.473-26.398,55.176-58.965,55.176H158.139     c-32.566,0-58.966-24.703-58.966-55.176V214.739C99.173,184.266,125.573,159.563,158.139,159.563z"
           fill="none"
           id="XMLID_272_"
           stroke="#000000"
           stroke-linejoin="round"
           stroke-width="18" /></g></g><polygon
       fill="#A8A8A8"
       points="281.587,136.332 397.128,248.214    351.777,240.497 351.101,283.625 257.449,154.079  "
       stroke="#000000"
       stroke-linejoin="round"
       stroke-width="15"
       id="polygon3729"
       style="fill:#ff9955" /><polygon
       fill="#A8A8A8"
       points="224.702,134.479 109.162,246.36    154.513,238.644 155.188,281.772 248.839,152.225  "
       stroke="#000000"
       stroke-linejoin="round"
       stroke-width="15"
       id="polygon3731"
       style="fill:#ff9955" /><g
       id="g3743"><path
         d="M253.053,131.803    c7.636-20.163,26.849-50.409,45.815-62.863c18.965-12.454,37.686-7.116,50.986,0.594s21.184,17.792,24.385,28.763    c3.203,10.971,1.725,22.832-4.68,31.728c-6.404,8.896-17.734,14.826-34.73,19.57c-16.996,4.745-39.656,8.303-54.189,11.861    c-14.532,3.559-20.936,7.116-26.109,3.854C249.358,162.048,245.417,151.967,253.053,131.803z"
         fill="#A8A8A8"
         stroke="#000000"
         stroke-linejoin="round"
         stroke-width="18"
         id="path3733"
         style="fill:#ff9955" /><path
         d="M259.266,164.466    c6.483-10.218,12.966-20.438,23.438-30.656c10.473-10.218,24.936-20.437,37.902-25.546c12.967-5.11,24.438-5.11,32.418-5.11    c7.979,0,12.467,0,14.711,3.832s2.244,11.496,2.244,19.16"
         fill="none"
         stroke="#000000"
         stroke-linejoin="round"
         stroke-width="18"
         id="path3735" /><path
         d="M249.938,132.061    c-7.636-20.164-26.849-50.409-45.815-62.863c-18.966-12.453-37.686-7.115-50.987,0.594c-13.301,7.71-21.183,17.792-24.386,28.763    c-3.202,10.971-1.724,22.832,4.68,31.728c6.405,8.896,17.735,14.826,34.731,19.57c16.996,4.745,39.657,8.303,54.189,11.861    c14.533,3.558,20.937,7.117,26.11,3.854C253.632,162.306,257.574,152.224,249.938,132.061z"
         fill="#A8A8A8"
         stroke="#000000"
         stroke-linejoin="round"
         stroke-width="18"
         id="path3737"
         style="fill:#ff9955" /><path
         d="M243.725,164.724    c-6.483-10.219-12.966-20.437-23.439-30.656c-10.473-10.218-24.936-20.437-37.903-25.546c-12.966-5.109-24.437-5.109-32.416-5.109    s-12.468,0-14.087,5.218c-1.62,5.218-0.37,15.653,0.88,26.089"
         fill="none"
         stroke="#000000"
         stroke-linejoin="round"
         stroke-width="18"
         id="path3739" /><rect
         fill="#A8A8A8"
         height="44.478"
         stroke="#000000"
         stroke-linejoin="round"
         stroke-width="12"
         width="17.735"
         x="244.432"
         y="125.873"
         id="rect3741"
         style="fill:#ff9955" /></g><rect
       fill="#A8A8A8"
       height="32.899"
       stroke="#000000"
       stroke-linejoin="round"
       stroke-width="14"
       width="304.354"
       x="102.495"
       y="299.437"
       id="rect3745"
       style="fill:#ff9955" /></g></svg>